<?xml version="1.0" encoding="utf-8"?>
<!-- Generator: Adobe Illustrator 16.0.0, SVG Export Plug-In . SVG Version: 6.00 Build 0)  -->
<!DOCTYPE svg PUBLIC "-//W3C//DTD SVG 1.1//EN" "http://www.w3.org/Graphics/SVG/1.1/DTD/svg11.dtd">
<svg version="1.1" xmlns="http://www.w3.org/2000/svg" xmlns:xlink="http://www.w3.org/1999/xlink" x="0px" y="0px" width="1220px"
	 height="1080px" viewBox="0 0 1220 1080" enable-background="new 0 0 1220 1080" xml:space="preserve">
<g id="Layer_1">
</g>
<g id="Layer_2">
	<polygon fill="#2996C1" points="30.979,1046.29 106.855,914.87 620.49,25.229 1123.409,896.317 1210,1046.29 	"/>
	<polygon fill="#001972" points="30.047,1046.293 87.291,946.812 621.415,575.261 1155.54,946.812 1210,1046.29 	"/>
	<path fill="#FFFFFF" d="M433.352,797.25"/>
	<polygon fill="#1870C0" points="1155.54,946.812 621.415,575.261 845.701,415.306 	"/>
	<polygon fill="#074590" points="87.291,946.812 396.434,413.306 621.415,575.261 	"/>
	<g>
		<path fill="#FFFFFF" d="M529.696,365.304c-1.872,0.901-3.925,1.604-6.16,2.105s-4.809,0.753-7.72,0.753
			c-2.981,0-5.701-0.477-8.162-1.429c-2.461-0.953-4.575-2.288-6.342-4.003c-1.768-1.716-3.145-3.76-4.133-6.135
			c-0.988-2.373-1.481-4.999-1.481-7.875c0-2.945,0.511-5.605,1.533-7.98c1.022-2.374,2.426-4.393,4.211-6.056
			c1.785-1.664,3.89-2.945,6.316-3.847c2.425-0.901,5.06-1.352,7.902-1.352c2.945,0,5.641,0.425,8.084,1.273
			c2.443,0.85,4.41,1.967,5.9,3.353l-4.523,4.887c-0.936-1.04-2.244-1.923-3.925-2.651c-1.682-0.728-3.509-1.092-5.485-1.092
			c-1.941,0-3.7,0.347-5.276,1.04c-1.578,0.694-2.92,1.646-4.029,2.859c-1.11,1.213-1.967,2.634-2.573,4.263
			c-0.607,1.629-0.91,3.397-0.91,5.303c0,1.975,0.303,3.787,0.91,5.433c0.606,1.646,1.473,3.076,2.599,4.289
			c1.126,1.213,2.495,2.157,4.107,2.833c1.611,0.676,3.439,1.014,5.484,1.014c2.807,0,5.25-0.433,7.33-1.3v-9.357h-7.746v-5.407
			h14.088V365.304z"/>
		<path fill="#FFFFFF" d="M537.649,330.421h12.789c1.733,0,3.414,0.182,5.043,0.546c1.628,0.364,3.075,0.962,4.341,1.793
			c1.265,0.832,2.278,1.924,3.041,3.275c0.762,1.352,1.144,2.998,1.144,4.938c0,2.669-0.753,4.844-2.261,6.524
			c-1.508,1.681-3.561,2.816-6.16,3.405l9.825,16.324h-7.902l-8.526-15.596H544.2v15.596h-6.55V330.421z M549.554,346.277
			c0.936,0,1.872-0.069,2.808-0.208c0.936-0.138,1.775-0.398,2.521-0.78c0.745-0.381,1.36-0.927,1.846-1.638
			c0.485-0.71,0.728-1.62,0.728-2.729c0-1.005-0.226-1.828-0.676-2.47c-0.451-0.641-1.022-1.151-1.715-1.533
			c-0.694-0.381-1.481-0.641-2.365-0.78c-0.884-0.138-1.742-0.208-2.573-0.208H544.2v10.345H549.554z"/>
		<path fill="#FFFFFF" d="M568.581,348.721c0-2.945,0.494-5.605,1.481-7.98c0.988-2.374,2.356-4.393,4.107-6.056
			c1.75-1.664,3.829-2.945,6.238-3.847c2.408-0.901,5.034-1.352,7.876-1.352c2.876,0,5.527,0.451,7.954,1.352
			c2.425,0.902,4.523,2.184,6.291,3.847c1.767,1.664,3.145,3.683,4.133,6.056c0.988,2.375,1.481,5.035,1.481,7.98
			c0,2.877-0.494,5.502-1.481,7.875c-0.988,2.375-2.366,4.419-4.133,6.135c-1.768,1.715-3.865,3.05-6.291,4.003
			c-2.426,0.953-5.078,1.429-7.954,1.429c-2.842,0-5.468-0.477-7.876-1.429c-2.409-0.953-4.489-2.288-6.238-4.003
			c-1.75-1.716-3.119-3.76-4.107-6.135C569.075,354.223,568.581,351.598,568.581,348.721z M575.703,348.721
			c0,1.975,0.303,3.787,0.91,5.433c0.606,1.646,1.473,3.076,2.599,4.289c1.126,1.213,2.46,2.157,4.003,2.833
			c1.542,0.676,3.249,1.014,5.121,1.014s3.587-0.338,5.146-1.014c1.56-0.676,2.902-1.62,4.029-2.833
			c1.125-1.213,1.992-2.642,2.599-4.289c0.606-1.646,0.91-3.458,0.91-5.433c0-1.906-0.304-3.673-0.91-5.303
			c-0.607-1.628-1.464-3.049-2.573-4.263c-1.11-1.213-2.443-2.166-4.003-2.859c-1.56-0.693-3.293-1.04-5.199-1.04
			c-1.906,0-3.631,0.347-5.172,1.04c-1.542,0.694-2.868,1.646-3.977,2.859c-1.11,1.213-1.967,2.634-2.573,4.263
			C576.006,345.047,575.703,346.815,575.703,348.721z"/>
		<path fill="#FFFFFF" d="M610.741,330.421h7.175l7.122,27.033h0.104l8.11-27.033h6.758l7.954,27.033h0.104l7.278-27.033h6.966
			l-10.761,36.806h-6.343l-8.63-27.604h-0.104l-8.63,27.604h-6.342L610.741,330.421z"/>
		<path fill="#FFFFFF" d="M674.112,336.14h-11.281v-5.719h29.112v5.719h-11.281v31.087h-6.55V336.14z"/>
		<path fill="#FFFFFF" d="M696.206,330.421h6.551v14.868h17.207v-14.868h6.55v36.806h-6.55v-16.324h-17.207v16.324h-6.551V330.421z"
			/>
	</g>
	<g>
		<path fill="#FFFFFF" d="M336.73,573.879c-0.771-0.842-1.751-1.517-2.942-2.021c-1.191-0.506-2.521-0.758-3.989-0.758
			c-1.492,0-2.84,0.271-4.043,0.812c-1.204,0.542-2.227,1.282-3.069,2.221c-0.843,0.938-1.493,2.027-1.949,3.267
			c-0.458,1.24-0.686,2.558-0.686,3.953c0,1.421,0.229,2.757,0.686,4.008c0.457,1.252,1.106,2.341,1.949,3.267
			c0.842,0.927,1.877,1.655,3.105,2.185c1.227,0.529,2.599,0.794,4.115,0.794c1.203,0,2.311-0.108,3.321-0.324
			c1.011-0.217,1.889-0.529,2.636-0.939v-7.111h-5.668v-3.033h9.206v12.383c-1.348,0.723-2.816,1.276-4.404,1.661
			s-3.321,0.577-5.199,0.577c-1.998,0-3.833-0.331-5.505-0.992c-1.673-0.662-3.111-1.589-4.314-2.78
			c-1.204-1.191-2.143-2.611-2.816-4.26c-0.674-1.648-1.011-3.459-1.011-5.434c0-1.997,0.343-3.82,1.029-5.469
			s1.636-3.057,2.852-4.224c1.215-1.167,2.653-2.076,4.314-2.726c1.661-0.65,3.466-0.976,5.415-0.976
			c2.045,0,3.869,0.302,5.47,0.903c1.6,0.602,2.93,1.407,3.989,2.418L336.73,573.879z"/>
		<path fill="#FFFFFF" d="M371.315,581.352c0,1.975-0.343,3.785-1.029,5.434s-1.631,3.068-2.834,4.26
			c-1.204,1.191-2.635,2.118-4.296,2.78c-1.661,0.661-3.466,0.992-5.415,0.992c-1.95,0-3.749-0.331-5.397-0.992
			c-1.648-0.662-3.075-1.589-4.278-2.78c-1.204-1.191-2.143-2.611-2.816-4.26c-0.674-1.648-1.011-3.459-1.011-5.434
			c0-1.997,0.336-3.82,1.011-5.469c0.673-1.648,1.612-3.057,2.816-4.224c1.203-1.167,2.629-2.076,4.278-2.726
			c1.648-0.65,3.448-0.976,5.397-0.976c1.949,0,3.754,0.325,5.415,0.976c1.661,0.649,3.092,1.559,4.296,2.726
			c1.203,1.167,2.148,2.575,2.834,4.224S371.315,579.354,371.315,581.352z M367.452,581.352c0-1.396-0.229-2.713-0.686-3.953
			c-0.458-1.239-1.107-2.328-1.95-3.267c-0.843-0.938-1.859-1.679-3.051-2.221c-1.191-0.541-2.533-0.812-4.025-0.812
			c-1.468,0-2.798,0.271-3.989,0.812c-1.191,0.542-2.202,1.282-3.033,2.221c-0.83,0.938-1.475,2.027-1.931,3.267
			c-0.458,1.24-0.686,2.558-0.686,3.953c0,1.421,0.229,2.757,0.686,4.008c0.457,1.252,1.106,2.341,1.949,3.267
			c0.842,0.927,1.853,1.655,3.033,2.185c1.179,0.529,2.503,0.794,3.971,0.794c1.468,0,2.803-0.265,4.007-0.794
			c1.203-0.529,2.226-1.258,3.068-2.185c0.842-0.926,1.492-2.015,1.95-3.267C367.223,584.108,367.452,582.772,367.452,581.352z"/>
		<path fill="#FFFFFF" d="M384.239,589.547h0.108l7.689-20.938h3.863l-10.036,25.56h-3.321l-9.964-25.56h3.971L384.239,589.547z"/>
		<path fill="#FFFFFF" d="M402.507,590.991h13.357v3.177h-16.932v-25.56h16.39v3.141h-12.816v7.653h12.058v3.068h-12.058V590.991z"
			/>
		<path fill="#FFFFFF" d="M424.204,594.168h-3.574v-25.56h8.195c1.228,0,2.395,0.126,3.502,0.379
			c1.106,0.253,2.076,0.656,2.906,1.209c0.831,0.555,1.486,1.282,1.968,2.185c0.481,0.902,0.722,2.004,0.722,3.304
			c0,1.877-0.578,3.393-1.733,4.548s-2.648,1.89-4.477,2.202l7.148,11.733h-4.332l-6.499-11.372h-3.827V594.168z M424.204,579.8
			h4.116c0.842,0,1.625-0.072,2.347-0.217c0.722-0.145,1.354-0.379,1.895-0.704s0.969-0.745,1.282-1.264
			c0.312-0.517,0.469-1.16,0.469-1.931s-0.157-1.414-0.469-1.932c-0.313-0.518-0.729-0.933-1.246-1.246
			c-0.518-0.312-1.125-0.535-1.823-0.668c-0.698-0.132-1.432-0.198-2.202-0.198h-4.368V579.8z"/>
		<path fill="#FFFFFF" d="M460.81,589.042h0.072v-20.434h3.574v25.56h-4.513l-13.502-20.866h-0.072v20.866h-3.574v-25.56h4.657
			L460.81,589.042z"/>
		<path fill="#FFFFFF" d="M471.712,594.168h-3.971l11.083-25.56h3.249l10.975,25.56h-4.043l-2.6-6.281h-12.13L471.712,594.168z
			 M475.539,584.745h9.567l-4.766-11.985L475.539,584.745z"/>
		<path fill="#FFFFFF" d="M514.348,589.042h0.072v-20.434h3.574v25.56h-4.513l-13.502-20.866h-0.072v20.866h-3.574v-25.56h4.657
			L514.348,589.042z"/>
		<path fill="#FFFFFF" d="M546.117,590.197c-1.011,1.371-2.323,2.485-3.935,3.339c-1.612,0.854-3.55,1.281-5.812,1.281
			c-1.95,0-3.749-0.331-5.397-0.992c-1.648-0.662-3.068-1.589-4.26-2.78s-2.125-2.611-2.798-4.26
			c-0.674-1.648-1.011-3.459-1.011-5.434c0-1.997,0.343-3.82,1.029-5.469s1.636-3.057,2.852-4.224
			c1.215-1.167,2.653-2.076,4.314-2.726c1.661-0.65,3.466-0.976,5.415-0.976c0.867,0,1.745,0.085,2.636,0.253
			c0.89,0.169,1.745,0.422,2.563,0.759c0.818,0.337,1.564,0.752,2.238,1.245s1.251,1.064,1.733,1.715l-2.816,2.166
			c-0.626-0.866-1.511-1.582-2.653-2.148c-1.144-0.564-2.377-0.848-3.701-0.848c-1.492,0-2.833,0.271-4.025,0.812
			c-1.191,0.542-2.208,1.282-3.051,2.221c-0.843,0.938-1.493,2.027-1.949,3.267c-0.458,1.24-0.686,2.558-0.686,3.953
			c0,1.444,0.222,2.793,0.668,4.044c0.445,1.252,1.083,2.341,1.913,3.267c0.831,0.927,1.841,1.655,3.033,2.185
			s2.521,0.794,3.989,0.794c1.444,0,2.755-0.288,3.935-0.866c1.179-0.577,2.153-1.42,2.924-2.527L546.117,590.197z"/>
		<path fill="#FFFFFF" d="M553.337,590.991h13.357v3.177h-16.932v-25.56h16.39v3.141h-12.816v7.653h12.058v3.068h-12.058V590.991z"
			/>
	</g>
	<g>
		<path fill="#FFFFFF" d="M723.737,573.879c-0.771-0.842-1.751-1.517-2.942-2.021c-1.191-0.506-2.521-0.758-3.989-0.758
			c-1.492,0-2.84,0.271-4.043,0.812c-1.204,0.542-2.227,1.282-3.068,2.221c-0.843,0.938-1.493,2.027-1.95,3.267
			c-0.457,1.24-0.686,2.558-0.686,3.953c0,1.421,0.229,2.757,0.686,4.008c0.457,1.252,1.107,2.341,1.95,3.267
			c0.842,0.927,1.877,1.655,3.104,2.185s2.599,0.794,4.115,0.794c1.203,0,2.311-0.108,3.321-0.324
			c1.011-0.217,1.89-0.529,2.636-0.939v-7.111h-5.668v-3.033h9.206v12.383c-1.349,0.723-2.816,1.276-4.404,1.661
			c-1.589,0.385-3.321,0.577-5.199,0.577c-1.998,0-3.833-0.331-5.505-0.992c-1.674-0.662-3.111-1.589-4.314-2.78
			c-1.204-1.191-2.143-2.611-2.816-4.26s-1.011-3.459-1.011-5.434c0-1.997,0.344-3.82,1.029-5.469s1.637-3.057,2.852-4.224
			c1.216-1.167,2.654-2.076,4.314-2.726c1.661-0.65,3.466-0.976,5.415-0.976c2.046,0,3.869,0.302,5.47,0.903s2.93,1.407,3.989,2.418
			L723.737,573.879z"/>
		<path fill="#FFFFFF" d="M742.294,594.817c-1.686,0-3.153-0.283-4.405-0.848c-1.251-0.565-2.286-1.318-3.104-2.257
			s-1.426-2.016-1.823-3.23c-0.396-1.216-0.596-2.474-0.596-3.773v-16.101h3.574v15.885c0,0.866,0.108,1.727,0.325,2.581
			s0.571,1.619,1.064,2.292c0.493,0.675,1.144,1.216,1.95,1.625c0.806,0.409,1.811,0.613,3.015,0.613
			c1.179,0,2.178-0.204,2.996-0.613c0.817-0.409,1.474-0.95,1.968-1.625c0.492-0.673,0.848-1.438,1.064-2.292
			s0.325-1.715,0.325-2.581v-15.885h3.574v16.101c0,1.3-0.199,2.558-0.596,3.773c-0.397,1.215-1.006,2.292-1.823,3.23
			c-0.818,0.938-1.854,1.691-3.104,2.257C745.446,594.534,743.978,594.817,742.294,594.817z"/>
		<path fill="#FFFFFF" d="M761.824,594.168h-3.574v-25.56h3.574V594.168z"/>
		<path fill="#FFFFFF" d="M768.033,568.608h8.772c1.637,0,3.273,0.24,4.91,0.722s3.116,1.24,4.44,2.274
			c1.323,1.035,2.395,2.359,3.213,3.972s1.228,3.55,1.228,5.812c0,2.19-0.409,4.086-1.228,5.687s-1.89,2.924-3.213,3.971
			c-1.324,1.047-2.804,1.83-4.44,2.347c-1.637,0.518-3.273,0.776-4.91,0.776h-8.772V568.608z M771.607,591.027h4.477
			c1.54,0,2.966-0.217,4.278-0.65c1.312-0.433,2.442-1.059,3.394-1.877c0.95-0.817,1.69-1.829,2.22-3.032s0.794-2.563,0.794-4.08
			c0-1.588-0.265-2.983-0.794-4.188c-0.529-1.203-1.27-2.208-2.22-3.015c-0.951-0.806-2.082-1.42-3.394-1.841
			c-1.312-0.421-2.738-0.632-4.278-0.632h-4.477V591.027z"/>
		<path fill="#FFFFFF" d="M795.687,594.168h-3.971l11.083-25.56h3.249l10.975,25.56h-4.043l-2.6-6.281h-12.13L795.687,594.168z
			 M799.514,584.745h9.566l-4.765-11.985L799.514,584.745z"/>
		<path fill="#FFFFFF" d="M838.322,589.042h0.072v-20.434h3.574v25.56h-4.513l-13.502-20.866h-0.072v20.866h-3.574v-25.56h4.657
			L838.322,589.042z"/>
		<path fill="#FFFFFF" d="M870.092,590.197c-1.011,1.371-2.323,2.485-3.936,3.339c-1.612,0.854-3.55,1.281-5.812,1.281
			c-1.949,0-3.749-0.331-5.396-0.992c-1.649-0.662-3.069-1.589-4.261-2.78c-1.19-1.191-2.124-2.611-2.798-4.26
			s-1.011-3.459-1.011-5.434c0-1.997,0.344-3.82,1.029-5.469s1.637-3.057,2.852-4.224c1.216-1.167,2.654-2.076,4.314-2.726
			c1.661-0.65,3.466-0.976,5.415-0.976c0.866,0,1.745,0.085,2.636,0.253c0.89,0.169,1.744,0.422,2.563,0.759
			c0.817,0.337,1.563,0.752,2.238,1.245c0.673,0.493,1.251,1.064,1.732,1.715l-2.815,2.166c-0.627-0.866-1.511-1.582-2.654-2.148
			c-1.143-0.564-2.377-0.848-3.7-0.848c-1.492,0-2.834,0.271-4.025,0.812c-1.191,0.542-2.208,1.282-3.05,2.221
			c-0.843,0.938-1.493,2.027-1.95,3.267c-0.457,1.24-0.686,2.558-0.686,3.953c0,1.444,0.222,2.793,0.668,4.044
			c0.445,1.252,1.083,2.341,1.913,3.267c0.83,0.927,1.841,1.655,3.032,2.185s2.521,0.794,3.989,0.794
			c1.444,0,2.756-0.288,3.936-0.866c1.179-0.577,2.153-1.42,2.924-2.527L870.092,590.197z"/>
		<path fill="#FFFFFF" d="M877.311,590.991h13.357v3.177h-16.932v-25.56h16.391v3.141h-12.816v7.653h12.058v3.068h-12.058V590.991z"
			/>
	</g>
	<g>
		<path fill="#FFFFFF" d="M430.914,801.129h10.245v30.631h37.047v-30.631h10.348v73.266h-10.348v-33.528h-37.047v33.528h-10.245
			V801.129z"/>
		<path fill="#FFFFFF" d="M534.292,876.257c-4.83,0-9.039-0.812-12.625-2.432c-3.588-1.62-6.555-3.777-8.899-6.468
			c-2.346-2.69-4.087-5.777-5.226-9.262c-1.138-3.482-1.707-7.088-1.707-10.813v-46.153h10.245v45.532
			c0,2.483,0.311,4.951,0.931,7.399c0.621,2.449,1.638,4.641,3.053,6.571c1.413,1.932,3.276,3.484,5.588,4.656
			c2.311,1.174,5.19,1.759,8.641,1.759c3.379,0,6.243-0.585,8.589-1.759c2.345-1.172,4.225-2.725,5.64-4.656
			c1.413-1.931,2.432-4.122,3.053-6.571c0.621-2.448,0.931-4.916,0.931-7.399v-45.532h10.245v46.153
			c0,3.726-0.569,7.331-1.708,10.813c-1.138,3.484-2.881,6.571-5.226,9.262c-2.346,2.69-5.313,4.848-8.899,6.468
			C543.328,875.445,539.12,876.257,534.292,876.257z"/>
		<path fill="#FFFFFF" d="M617.904,857.424h0.207l21.629-56.295h15.936v73.266h-10.244v-61.262h-0.207l-24.318,61.262h-6.52
			l-24.215-61.262h-0.207v61.262h-9.935v-73.266h15.937L617.904,857.424z"/>
		<path fill="#FFFFFF" d="M676.476,874.395h-11.383l31.769-73.266h9.313l31.459,73.266h-11.59l-7.451-18.006h-34.77L676.476,874.395
			z M687.445,847.386h27.423l-13.66-34.356L687.445,847.386z"/>
		<path fill="#FFFFFF" d="M798.688,859.7h0.207v-58.571h10.245v73.266h-12.936l-38.702-59.812h-0.207v59.812H747.05v-73.266h13.35
			L798.688,859.7z"/>
		<path fill="#FFFFFF" d="M377.88,987.19c-2.897,3.932-6.659,7.124-11.28,9.572c-4.623,2.447-10.177,3.673-16.661,3.673
			c-5.588,0-10.746-0.949-15.471-2.846c-4.726-1.896-8.796-4.553-12.211-7.968c-3.415-3.415-6.089-7.484-8.02-12.211
			c-1.932-4.725-2.897-9.917-2.897-15.574c0-5.726,0.983-10.951,2.949-15.678c1.966-4.725,4.69-8.761,8.175-12.107
			c3.483-3.346,7.606-5.95,12.366-7.812c4.76-1.863,9.935-2.794,15.522-2.794c2.483,0,5.001,0.242,7.554,0.724
			c2.552,0.483,5.001,1.208,7.347,2.174c2.345,0.967,4.484,2.156,6.416,3.57c1.931,1.414,3.586,3.053,4.967,4.915l-8.072,6.209
			c-1.795-2.483-4.33-4.535-7.606-6.157c-3.277-1.62-6.813-2.432-10.607-2.432c-4.278,0-8.124,0.775-11.538,2.328
			c-3.415,1.552-6.331,3.674-8.745,6.364c-2.416,2.69-4.278,5.812-5.588,9.365c-1.312,3.554-1.966,7.331-1.966,11.331
			c0,4.14,0.637,8.004,1.915,11.59c1.276,3.588,3.104,6.71,5.484,9.365c2.38,2.657,5.278,4.744,8.693,6.261
			c3.415,1.519,7.226,2.276,11.435,2.276c4.14,0,7.899-0.827,11.28-2.483c3.379-1.655,6.173-4.069,8.382-7.243L377.88,987.19z"/>
		<path fill="#FFFFFF" d="M390.091,998.573h-11.383l31.769-73.266h9.313l31.458,73.266h-11.59l-7.451-18.006h-34.771
			L390.091,998.573z M401.06,971.564h27.423l-13.66-34.356L401.06,971.564z"/>
		<path fill="#FFFFFF" d="M460.666,925.308h22.353c3.932,0,7.519,0.397,10.762,1.19c3.242,0.794,6.002,2.018,8.279,3.673
			c2.277,1.656,4.036,3.762,5.278,6.312c1.242,2.554,1.862,5.624,1.862,9.21c0,3.658-0.672,6.796-2.018,9.417
			c-1.345,2.623-3.208,4.761-5.588,6.416c-2.38,1.656-5.209,2.882-8.485,3.674c-3.277,0.794-6.814,1.19-10.607,1.19h-11.59v32.183
			h-10.245V925.308z M470.91,957.697h10.866c2.484,0,4.776-0.223,6.882-0.672c2.104-0.448,3.915-1.139,5.433-2.07
			c1.517-0.931,2.69-2.155,3.519-3.673c0.828-1.518,1.242-3.38,1.242-5.589c0-2.207-0.432-4.052-1.293-5.536
			c-0.863-1.482-2.036-2.69-3.519-3.622c-1.484-0.931-3.26-1.586-5.329-1.966c-2.07-0.378-4.312-0.569-6.727-0.569H470.91V957.697z"
			/>
		<path fill="#FFFFFF" d="M540.553,925.308h26.181l28.561,73.266h-26.802l-3.829-10.762h-23.283l-3.622,10.762h-26.078
			L540.553,925.308z M553.281,950.868l-6.002,18.109h11.9L553.281,950.868z"/>
		<path fill="#FFFFFF" d="M648.38,960.491c1.724,0.414,3.415,1.087,5.07,2.019c1.656,0.932,3.139,2.105,4.45,3.519
			c1.31,1.414,2.345,3.053,3.104,4.915c0.758,1.862,1.139,3.933,1.139,6.209c0,4.002-0.812,7.365-2.433,10.09
			c-1.621,2.726-3.761,4.933-6.416,6.623c-2.656,1.69-5.691,2.897-9.106,3.621c-3.414,0.725-6.917,1.087-10.503,1.087h-33.218
			v-73.266h30.113c2.965,0,6.121,0.225,9.469,0.673c3.345,0.449,6.432,1.345,9.262,2.69c2.828,1.345,5.174,3.312,7.036,5.898
			c1.863,2.587,2.795,5.985,2.795,10.193c0,3.932-0.983,7.176-2.95,9.727c-1.966,2.554-4.57,4.45-7.812,5.692V960.491z
			 M623.44,944.452v9.003h6.623c1.724,0,3.139-0.396,4.243-1.19c1.103-0.792,1.655-2.018,1.655-3.674
			c0-1.379-0.587-2.414-1.759-3.104c-1.174-0.688-2.727-1.034-4.657-1.034H623.44z M623.44,969.288v9.934h7.348
			c1.931,0,3.5-0.43,4.708-1.293c1.206-0.862,1.812-2.122,1.812-3.777c0-0.965-0.259-1.759-0.776-2.38s-1.156-1.121-1.914-1.501
			c-0.761-0.378-1.57-0.637-2.433-0.775c-0.863-0.138-1.673-0.207-2.432-0.207H623.44z"/>
		<path fill="#FFFFFF" d="M672.181,925.308h24.836v73.266h-24.836V925.308z"/>
		<path fill="#FFFFFF" d="M710.676,925.308h24.836v52.052h24.318v21.214h-49.154V925.308z"/>
		<path fill="#FFFFFF" d="M767.487,925.308h24.836v73.266h-24.836V925.308z"/>
		<path fill="#FFFFFF" d="M842.511,998.573h-24.629v-52.466h-18.006v-20.8h60.641v20.8h-18.006V998.573z"/>
		<path fill="#FFFFFF" d="M909.774,998.573h-24.629v-30.01l-27.63-43.256h29.699l11.59,21.524l11.073-21.524h28.975l-29.078,43.256
			V998.573z"/>
	</g>
</g>
<g id="Layer_3" display="none">
	<g display="inline">
		<polygon fill="#2996C1" points="27.884,368.679 54.156,323.175 232.001,15.139 406.136,316.751 436.117,368.679 		"/>
		<polygon fill="#001972" points="27.562,368.68 47.382,334.234 232.321,205.585 417.261,334.234 436.117,368.679 		"/>
		<path fill="#FFFFFF" d="M167.205,282.449"/>
		<polygon fill="#1870C0" points="417.261,334.234 232.321,205.585 309.979,150.202 		"/>
		<polygon fill="#074590" points="47.382,334.234 154.422,149.509 232.321,205.585 		"/>
		<text transform="matrix(1 0 0 1 188 133.5547)" fill="#FFFFFF" font-family="'AvenirNext-DemiBold'" font-size="18">GROWTH</text>
		<text transform="matrix(1 0 0 1 126 212.1328)" fill="#FFFFFF" font-family="'AvenirNext-Medium'" font-size="12.5">GOVERNANCE</text>
		<text transform="matrix(1 0 0 1 260 212.1328)" fill="#FFFFFF" font-family="'AvenirNext-Medium'" font-size="12.5">GUIDANCE</text>
		<text transform="matrix(1 0 0 1 163.2783 309.1602)"><tspan x="0" y="0" fill="#FFFFFF" font-family="'AvenirNext-Medium'" font-size="35.8306">HUMAN</tspan><tspan x="-40.971" y="42.997" fill="#FFFFFF" font-family="'AvenirNext-Medium'" font-size="35.8306">CAP</tspan><tspan x="31.191" y="42.997" fill="#FFFFFF" font-family="'AvenirNext-Heavy'" font-size="35.8306">ABILITY</tspan></text>
	</g>
</g>
</svg>
